<svg xmlns="http://www.w3.org/2000/svg" fill="none" viewBox="108.876 0 202.56 58.66883116883117" style="max-height: 500px" width="202.56" height="58.66883116883117">
<g filter="url(#filter0_b_1_88)">
<path fill="#FFE609" d="M2 12C2 10.8954 2.89543 10 4 10H149.537V18.3375H4C2.89543 18.3375 2 17.442 2 16.3375V12Z"/>
<path fill="#FF0909" d="M2 26.5277C2 27.6323 2.89543 28.5277 4 28.5277H149.537V20.6534H4C2.89543 20.6534 2 21.5488 2 22.6534V26.5277Z"/>
<path fill="#09FF3F" d="M2 37.1812C2 38.2857 2.89543 39.1812 4 39.1812H149.537V30.8437H4C2.89543 30.8437 2 31.7391 2 32.8437V37.1812Z"/>
<path fill="#095CFF" d="M2 48C2 49.1046 2.89543 50 4 50H149.537V41.6625H4C2.89543 41.6625 2 42.558 2 43.6625V48Z"/>
<path fill="#FFE609" d="M420 12C420 10.8954 419.105 10 418 10H273.54V18.3373H418C419.105 18.3373 420 17.4418 420 16.3373V12Z"/>
<path fill="#FF0909" d="M420 26.5272C420 27.6318 419.105 28.5272 418 28.5272H273.54V20.6531H418C419.105 20.6531 420 21.5486 420 22.6531V26.5272Z"/>
<path fill="#09FF3F" d="M420 37.1805C420 38.2851 419.105 39.1805 418 39.1805H273.54V30.8432H418C419.105 30.8432 420 31.7386 420 32.8432V37.1805Z"/>
<path fill="#095CFF" d="M420 47.9989C420 49.1035 419.105 49.9989 418 49.9989H273.54V41.6616H418C419.105 41.6616 420 42.5571 420 43.6616V47.9989Z"/>
<g filter="url(#filter1_d_1_88)">
<path fill="white" d="M157.105 50H151.747V23.78C151.747 19.296 152.944 15.8 155.338 13.292C157.77 10.784 160.981 9.53 164.971 9.53C169.227 9.53 172.514 10.746 174.832 13.178C177.188 15.61 178.366 18.707 178.366 22.469C178.366 24.825 177.929 26.877 177.055 28.625C176.219 30.373 175.079 31.722 173.635 32.672C172.191 33.622 170.652 34.325 169.018 34.781C167.384 35.237 165.674 35.465 163.888 35.465H159.613V30.449H164.515C167.061 30.449 169.056 29.689 170.5 28.169C171.982 26.611 172.723 24.673 172.723 22.355C172.723 20.075 172.039 18.213 170.671 16.769C169.341 15.287 167.422 14.546 164.914 14.546C162.482 14.546 160.563 15.382 159.157 17.054C157.789 18.688 157.105 20.854 157.105 23.552V50ZM208.712 30.221C208.674 28.093 208.351 26.079 207.743 24.179C207.173 22.279 206.318 20.626 205.178 19.22C204.076 17.776 202.727 16.636 201.131 15.8C199.535 14.964 197.73 14.546 195.716 14.546C193.702 14.546 191.897 14.964 190.301 15.8C188.705 16.636 187.337 17.776 186.197 19.22C185.095 20.626 184.24 22.279 183.632 24.179C183.062 26.079 182.758 28.093 182.72 30.221C182.758 32.387 183.062 34.401 183.632 36.263C184.24 38.125 185.095 39.74 186.197 41.108C187.337 42.476 188.705 43.559 190.301 44.357C191.897 45.155 193.702 45.554 195.716 45.554C197.73 45.554 199.535 45.155 201.131 44.357C202.727 43.559 204.076 42.476 205.178 41.108C206.318 39.74 207.173 38.125 207.743 36.263C208.351 34.401 208.674 32.387 208.712 30.221ZM176.963 30.221C177.001 27.067 177.476 24.217 178.388 21.671C179.3 19.125 180.573 16.959 182.207 15.173C183.841 13.349 185.798 11.962 188.078 11.012C190.358 10.024 192.904 9.53 195.716 9.53C198.49 9.53 201.017 10.024 203.297 11.012C205.615 11.962 207.591 13.349 209.225 15.173C210.859 16.959 212.132 19.125 213.044 21.671C213.956 24.217 214.431 27.067 214.469 30.221C214.431 33.375 213.956 36.206 213.044 38.714C212.17 41.222 210.916 43.35 209.282 45.098C207.648 46.846 205.672 48.195 203.354 49.145C201.074 50.095 198.528 50.57 195.716 50.57C192.904 50.57 190.339 50.095 188.021 49.145C185.741 48.195 183.784 46.846 182.15 45.098C180.516 43.35 179.243 41.222 178.331 38.714C177.457 36.206 177.001 33.375 176.963 30.221ZM220.415 50H215.057V10.1H229.136C233.848 10.1 237.363 11.164 239.681 13.292C241.999 15.382 243.158 18.688 243.158 23.21V50H237.8V22.469C237.8 19.885 237.002 18.023 235.406 16.883C233.848 15.705 231.777 15.116 229.193 15.116H220.415V50ZM262.42 44.984H266.524V33.014H260.653V27.998H271.882V50H263.104C256.986 50 252.179 48.271 248.683 44.813C245.225 41.317 243.477 36.396 243.439 30.05C243.477 23.704 245.225 18.802 248.683 15.344C252.179 11.848 256.986 10.1 263.104 10.1H269.659V15.116H262.42C258.202 15.116 254.953 16.522 252.673 19.334C250.431 22.108 249.272 25.68 249.196 30.05C249.272 34.42 250.431 38.011 252.673 40.823C254.953 43.597 258.202 44.984 262.42 44.984Z"/>
</g>
</g>
<defs>
<filter color-interpolation-filters="sRGB" filterUnits="userSpaceOnUse" height="73" width="430" y="-4" x="-4" id="filter0_b_1_88">
<feFlood result="BackgroundImageFix" flood-opacity="0"/>
<feGaussianBlur stdDeviation="2" in="BackgroundImageFix"/>
<feComposite result="effect1_backgroundBlur_1_88" operator="in" in2="SourceAlpha"/>
<feBlend result="shape" in2="effect1_backgroundBlur_1_88" in="SourceGraphic" mode="normal"/>
</filter>
<filter color-interpolation-filters="sRGB" filterUnits="userSpaceOnUse" height="49.04" width="128.135" y="9.53" x="147.747" id="filter1_d_1_88">
<feFlood result="BackgroundImageFix" flood-opacity="0"/>
<feColorMatrix result="hardAlpha" values="0 0 0 0 0 0 0 0 0 0 0 0 0 0 0 0 0 0 127 0" type="matrix" in="SourceAlpha"/>
<feOffset dy="4"/>
<feGaussianBlur stdDeviation="2"/>
<feComposite operator="out" in2="hardAlpha"/>
<feColorMatrix values="0 0 0 0 0 0 0 0 0 0 0 0 0 0 0 0 0 0 0.25 0" type="matrix"/>
<feBlend result="effect1_dropShadow_1_88" in2="BackgroundImageFix" mode="normal"/>
<feBlend result="shape" in2="effect1_dropShadow_1_88" in="SourceGraphic" mode="normal"/>
</filter>
</defs>
</svg>